PathFileType	4	(X/Y/Z)	C:/Users/opensim2020/Desktop/walking_exp_matlab/subject02_walking04_straight_03.trc	
DataRate	CameraRate	NumFrames	NumMarkers	Units	OrigDataRate	OrigDataStartFrame	OrigNumFrames	
100.00	100.00	5	42	mm	100.00	2372	222	
Frame#	Time	LFHD			RFHD			LBHD			RBHD			C7			T10			CLAV			STRN			RBAK			LSHO			LUPA			LELB			LFRM			LWRA			LWRB			LFIN			RSHO			RUPA			RELB			RFRM			RWRA			RWRB			RFIN			LASI			RASI			LPSI			RPSI			LTHI			LKNE			LTIB			LANK			LHEE			LTOE			RTHI			RKNE			RTIB			RANK			RHEE			RTOE			*39			*40			*41			
		X1	Y1	Z1	X2	Y2	Z2	X3	Y3	Z3	X4	Y4	Z4	X5	Y5	Z5	X6	Y6	Z6	X7	Y7	Z7	X8	Y8	Z8	X9	Y9	Z9	X10	Y10	Z10	X11	Y11	Z11	X12	Y12	Z12	X13	Y13	Z13	X14	Y14	Z14	X15	Y15	Z15	X16	Y16	Z16	X17	Y17	Z17	X18	Y18	Z18	X19	Y19	Z19	X20	Y20	Z20	X21	Y21	Z21	X22	Y22	Z22	X23	Y23	Z23	X24	Y24	Z24	X25	Y25	Z25	X26	Y26	Z26	X27	Y27	Z27	X28	Y28	Z28	X29	Y29	Z29	X30	Y30	Z30	X31	Y31	Z31	X32	Y32	Z32	X33	Y33	Z33	X34	Y34	Z34	X35	Y35	Z35	X36	Y36	Z36	X37	Y37	Z37	X38	Y38	Z38	X39	Y39	Z39	X40	Y40	Z40	X41	Y41	Z41	X42	Y42	Z42	

167	1.660	-1138.18713	552.53876	1745.44128	-997.03796	525.05817	1723.36072	-1173.48975	424.19281	1674.71582	-1036.75854	384.34100	1652.15869	-1101.62366	353.53461	1532.15051	-1092.95044	298.50018	1254.74377	-1106.93469	493.71085	1463.23486	-1097.41968	545.43207	1293.19006	-1037.54431	292.06390	1356.73999	-1277.73401	433.98880	1507.25647	-1372.43188	468.17249	1315.39148	-1395.30798	510.75989	1180.81482	-1403.83313	577.64368	1065.44324	-1360.60486	676.36127	977.62738	-1399.80212	640.03033	959.64325	-1401.34717	687.96552	914.58075	-912.34882	424.91171	1497.85486	-827.61615	389.10248	1310.22278	-805.17969	403.98224	1163.85803	-783.76233	440.47971	1048.53638	-801.24902	499.30560	926.46234	-769.65875	452.25143	919.12000	-765.80212	495.50220	860.97919	-1233.97046	534.83661	998.11493	-976.64581	545.65948	988.56097	-1140.88928	326.89368	1034.26514	-1025.91272	326.73468	1034.10193	-1268.84119	461.73709	682.68799	-1231.38806	421.67245	482.05637	-1223.14917	361.18527	295.92639	-1179.68628	365.53900	71.92303	-1128.66150	329.79074	44.41643	-1186.73035	523.01373	36.50639	-881.53943	531.62244	691.59918	-899.13989	587.89862	492.46698	-901.80872	525.61029	315.48068	-936.79083	494.73605	125.41727	-1000.80200	473.29852	69.87383	-884.71490	627.48370	55.70936	-1067.18652	437.10403	1811.72437	-3360.30591	2845.22729	1033.59631			 
168	1.670	-1137.96167	562.29810	1744.37708	-996.83411	534.34290	1722.63086	-1173.71936	433.68149	1674.41321	-1037.36707	393.11737	1651.64648	-1102.22778	362.13449	1531.80603	-1092.96338	306.73538	1254.61133	-1107.32043	502.11423	1462.51465	-1098.07458	553.42395	1292.29639	-1038.25928	300.11060	1356.42236	-1278.03210	442.97409	1507.14673	-1373.50647	479.65561	1316.41931	-1396.65723	524.35333	1182.36755	-1404.98010	593.33148	1068.09717	-1361.28491	693.27362	982.04327	-1400.81860	657.60016	963.50757	-1401.99500	706.29486	919.15552	-912.79858	432.89136	1496.95239	-828.35815	395.34570	1309.79761	-805.81866	408.84238	1163.23486	-784.02881	443.93808	1047.63794	-800.79810	501.78888	925.10419	-769.53461	454.60178	918.23553	-765.31378	497.26151	859.63672	-1234.73486	541.66504	997.05157	-977.04956	554.03119	987.98602	-1140.41943	334.29865	1033.80676	-1025.68579	334.73633	1033.59937	-1268.45764	466.72308	682.16052	-1231.07324	425.31973	481.79349	-1222.72229	363.27533	296.17307	-1179.34668	365.88379	72.17719	-1128.22266	329.95386	44.80916	-1186.87817	523.23566	36.43275	-882.14465	541.05536	691.43420	-901.40570	598.70203	492.03729	-902.97888	544.38672	312.20035	-937.35773	521.85162	120.70077	-1000.84570	502.98624	64.28468	-886.27893	658.47308	56.90311	-1067.21716	447.00760	1810.99707	-3357.37842	2845.66064	1033.91101			 
169	1.680	-1137.68433	572.04755	1743.20679	-996.57220	543.73029	1721.21887	-1173.87708	443.12924	1674.01941	-1037.56909	402.17227	1651.61694	-1102.77856	370.75864	1531.21375	-1092.85168	314.76410	1254.21545	-1107.61401	510.61584	1461.69275	-1098.58630	561.49213	1291.39404	-1038.86169	308.24829	1356.02588	-1278.18396	451.87662	1506.80066	-1374.17627	490.85443	1317.13623	-1397.67969	537.61462	1183.75623	-1405.80469	608.58356	1070.77771	-1361.87329	709.80261	986.24341	-1401.79736	674.72064	967.28345	-1402.86145	724.25415	923.95087	-913.14453	440.83118	1496.06116	-829.03357	401.43716	1309.31604	-806.28400	413.91333	1162.74561	-783.98322	448.04117	1046.90833	-800.37054	504.76843	923.76031	-769.32068	457.06702	917.36176	-764.78815	499.01395	858.30255	-1235.19836	549.22705	996.17200	-977.53156	562.24261	987.33820	-1140.03735	341.87131	1033.21924	-1025.52222	342.72827	1032.97498	-1268.35034	471.92191	681.63403	-1230.72412	429.12448	481.45728	-1222.43030	365.43509	296.44467	-1179.02026	366.23767	72.41222	-1127.86877	330.14926	45.15704	-1187.03186	523.44122	36.34971	-882.65131	550.35034	691.05823	-903.61310	609.27289	491.09543	-904.03558	563.04669	309.14896	-937.73602	549.23828	116.45082	-1000.84326	532.47339	59.08334	-887.73676	689.09161	58.64738	-1067.11694	456.97888	1810.30823	-3357.48047	2845.71362	1033.89392			 
170	1.690	-1137.33459	581.76959	1741.93665	-996.36169	552.94293	1719.59778	-1173.93616	452.49722	1673.32788	-1037.82544	411.21835	1650.68958	-1103.06262	379.44165	1530.76318	-1092.68860	322.88120	1253.78259	-1107.80920	519.06885	1460.75720	-1098.97571	569.55139	1290.40442	-1039.21411	316.36667	1355.49939	-1278.25940	460.66992	1506.23242	-1374.69604	501.84299	1317.68774	-1398.84155	550.67316	1185.10925	-1406.99414	623.61890	1073.31689	-1362.36084	725.91785	990.42145	-1402.56592	691.32227	970.89069	-1403.47461	741.61816	928.48059	-913.38849	448.83725	1495.18018	-829.55573	408.01059	1308.69373	-806.65533	419.31366	1162.14868	-783.95770	451.96396	1046.11487	-799.72406	507.48953	922.29437	-769.05707	459.59842	916.37512	-764.15411	500.88034	856.94843	-1235.34351	556.80939	995.33679	-977.48724	570.76019	986.48389	-1139.76392	349.79752	1032.51599	-1025.32324	350.71405	1032.14563	-1268.26965	477.29559	680.97266	-1230.42322	433.03470	481.15149	-1222.03235	367.63269	296.69876	-1178.69690	366.55945	72.66368	-1127.50757	330.41364	45.50988	-1187.28784	523.71179	36.40110	-883.15753	559.40784	690.34229	-905.98401	619.54785	490.25720	-905.16931	581.27173	306.02902	-937.77240	576.51166	112.99312	-1000.51672	561.02820	55.05068	-889.15802	719.22473	61.18991	-1066.83484	466.91040	1809.49036	-3357.30640	2845.69678	1033.91528			 
171	1.700	-1136.82214	591.44324	1740.58154	-995.87030	562.44543	1718.36462	-1173.82263	462.03101	1672.76733	-1037.63232	420.49835	1650.19324	-1103.29395	388.08804	1530.11646	-1092.52527	331.09491	1253.14294	-1107.92151	527.58502	1459.73743	-1099.24158	577.70239	1289.28821	-1039.94604	324.59946	1355.02502	-1278.26636	469.51791	1505.63452	-1375.00891	512.59937	1318.05737	-1399.42896	563.33636	1186.19995	-1407.69080	638.18317	1075.66272	-1362.65405	741.35284	994.13110	-1403.19299	707.43817	974.29431	-1403.97888	758.48273	932.75812	-913.59222	456.99973	1494.20813	-829.81403	414.89490	1308.27551	-806.80475	424.83307	1161.74377	-783.89008	455.78784	1045.10229	-799.16754	510.61429	920.85400	-768.44415	462.63956	915.67560	-763.69843	503.03397	855.55933	-1235.01392	564.80536	994.56995	-977.49078	579.10950	985.49463	-1139.48792	357.65961	1031.71863	-1025.20862	358.79156	1031.24146	-1267.82385	483.06073	680.29102	-1230.04053	437.03183	480.78192	-1221.62976	369.88477	297.00638	-1178.39197	366.89868	72.93721	-1127.53699	330.55939	45.99599	-1187.30481	523.70673	36.25265	-883.76361	568.16998	689.50885	-908.28870	629.19562	488.93442	-906.19006	599.33447	303.32281	-937.75726	603.38171	110.00935	-1000.19342	590.28064	51.28306	-890.50964	748.84467	64.48732	-1066.37903	476.78967	1808.72534	-3357.65894	2845.93604	1033.94299			 
